<svg width="46" height="45" viewBox="0 0 46 45" fill="none" xmlns="http://www.w3.org/2000/svg">
<g clip-path="url(#clip0_67_672)">
<path fill-rule="evenodd" clip-rule="evenodd" d="M38.9821 6.53963C34.7519 2.32474 29.126 0.00246094 23.1325 0C10.7825 0 0.731328 10.0028 0.726383 22.297C0.724687 26.2271 1.75626 30.0635 3.71709 33.4451L0.538452 45L12.4163 41.8991C15.6891 43.6759 19.3738 44.6122 23.1234 44.6133H23.1329C35.4815 44.6133 45.5338 34.6097 45.5385 22.3149C45.541 16.3564 43.2126 10.7543 38.9821 6.53963ZM23.1325 40.8473H23.1248C19.7833 40.8459 16.506 39.9523 13.6463 38.2639L12.9666 37.8621L5.91807 39.7023L7.79936 32.863L7.35638 32.1618C5.49219 29.2109 4.50775 25.8003 4.50944 22.2983C4.51333 12.0797 12.8678 3.76608 23.14 3.76608C28.1142 3.7677 32.7902 5.69798 36.3061 9.20123C39.822 12.7045 41.7572 17.3611 41.7556 22.3135C41.7512 32.5329 33.3974 40.8473 23.1325 40.8473ZM33.3476 26.9664C32.7879 26.6874 30.0353 25.3399 29.522 25.1537C29.0092 24.9678 28.6355 24.8752 28.2627 25.4327C27.8893 25.9903 26.8165 27.2455 26.4898 27.6171C26.163 27.989 25.8368 28.0356 25.2768 27.7566C24.7169 27.4778 22.9131 26.8893 20.7746 24.9911C19.1104 23.5137 17.9869 21.6892 17.6601 21.1316C17.3339 20.5735 17.6573 20.301 17.9057 19.9945C18.5118 19.2455 19.1186 18.4603 19.3052 18.0887C19.492 17.7167 19.3985 17.3913 19.2583 17.1125C19.1186 16.8337 17.999 14.0913 17.5326 12.9753C17.0778 11.8894 16.6166 12.036 16.2728 12.019C15.9466 12.0028 15.5732 11.9995 15.1998 11.9995C14.8266 11.9995 14.22 12.1387 13.7067 12.6968C13.1937 13.2547 11.7476 14.6024 11.7476 17.3449C11.7476 20.0874 13.7537 22.7367 14.0335 23.1086C14.3133 23.4805 17.9814 29.1082 23.5973 31.5214C24.933 32.096 25.9756 32.4385 26.789 32.6952C28.1302 33.1193 29.3503 33.0595 30.3151 32.916C31.3909 32.7559 33.6272 31.5681 34.0941 30.2666C34.5605 28.9652 34.5605 27.8497 34.4203 27.6171C34.2807 27.3848 33.9073 27.2455 33.3476 26.9664Z" fill="white"/>
</g>
<defs>
<clipPath id="clip0_67_672">
<rect width="45" height="45" fill="white" transform="translate(0.5)"/>
</clipPath>
</defs>
</svg>
